# xmcd CD database file
#
# Track frame offsets:
#	150
#	36454
#	64802
#	83642
#	104024
#	127644
#	157877
#	181862
#	205247
#	226411
#	246368
#
# Disc length: 3696 seconds
#
# Revision: 1
# Processed by: cddbd v1.5.2PL0 Copyright (c) Steve Scherf et al.
# Submitted via: CDex 1.51
#
DISCID=8c0e6e0b
DTITLE=Aurio Corra - Catedral Mistica
DYEAR=2003
DGENRE=New Age
TTITLE0=A Grande Catedral
TTITLE1=De Joelhos Na Nave
TTITLE2=Aboboda Celeste
TTITLE3=O Altar De Budha
TTITLE4=Oracao A Lao Tse
TTITLE5=Santuario De Krishna
TTITLE6=Aos Pes De Cristo
TTITLE7=Magia Dos Vitrais
TTITLE8=Diante Do Profeta
TTITLE9=Os Tres Guardioes Do Mundo
TTITLE10=Constelacoes Sagradas
EXTD=YEAR: 2003
EXTT0=
EXTT1=
EXTT2=
EXTT3=
EXTT4=
EXTT5=
EXTT6=
EXTT7=
EXTT8=
EXTT9=
EXTT10=
PLAYORDER=
